# xmcd
#
# Track frame offsets:
#	150
#	26379
#	43041
#	62567
#	76303
#	92200
#	107788
#	127501
#	146632
#	159399
#	174060
#	193587
#
# Disc length: 3159 seconds
#
# Revision: 2
# Processed by: cddbd v1.5.1PL2 Copyright (c) Steve Scherf et al.
# Submitted via: EasyCDDAExtractor 8.0.2.1
#
DISCID=8c0c550c
DTITLE=Alice Cooper - Pompano Beach Amphitheatre West Palm Beach 09-11-01 Disc
DTITLE=1
DYEAR=2001
DGENRE=Hard Rock
TTITLE0=Sex Death and Money - Brutal Planet - Dragontown - Sex Death and Money Rep
TTITLE0=rise
TTITLE1=Sanctuary
TTITLE2=Eighteen
TTITLE3=Welcome To My Nightmare
TTITLE4=Go To Hell
TTITLE5=Billion Dollar Babies
TTITLE6=Teenage Frankenstein
TTITLE7=Triggerman
TTITLE8=Nurse Rozetta
TTITLE9=Dead Babies
TTITLE10=Ballad Of Dwight Fry
TTITLE11=The Piece - I Love The Dead - Devil's Food - Black Widow - Drum Solo
EXTD=
EXTT0=
EXTT1=
EXTT2=
EXTT3=
EXTT4=
EXTT5=
EXTT6=
EXTT7=
EXTT8=
EXTT9=
EXTT10=
EXTT11=
PLAYORDER=
